<?xml version="1.0" encoding="utf-8"?>
<!-- Generator: Adobe Illustrator 16.0.3, SVG Export Plug-In . SVG Version: 6.00 Build 0)  -->
<!DOCTYPE svg PUBLIC "-//W3C//DTD SVG 1.1//EN" "http://www.w3.org/Graphics/SVG/1.1/DTD/svg11.dtd">
<svg version="1.1" id="Calque_1" xmlns="http://www.w3.org/2000/svg" xmlns:xlink="http://www.w3.org/1999/xlink" x="0px" y="0px"
	 width="299.646px" height="138.255px" viewBox="0 0 299.646 138.255" enable-background="new 0 0 299.646 138.255"
	 xml:space="preserve">
<g>
	<g>
		<g>
			<rect x="71.125" y="42.708" fill="#0069B4" width="18.507" height="95.524"/>
			<path fill="#0069B4" d="M204.042,90.433c0-26.4,21.402-47.803,47.803-47.803c26.399,0,47.802,21.402,47.802,47.803
				c0,26.399-21.402,47.801-47.802,47.801C225.444,138.233,204.042,116.832,204.042,90.433z M251.732,120.008
				c16.384,0,29.665-13.282,29.665-29.665s-13.281-29.664-29.665-29.664s-29.665,13.281-29.665,29.664
				S235.349,120.008,251.732,120.008z"/>
			<path fill="#0069B4" d="M55.126,119.969c-0.508,0.026-1.02,0.039-1.534,0.039c-16.383,0-29.665-13.282-29.665-29.665
				s13.282-29.664,29.665-29.664c0.536,0,1.068,0.014,1.597,0.042l-0.063-18.07c-0.472-0.013-0.946-0.021-1.421-0.021
				c-26.4,0-47.802,21.402-47.802,47.803c0,26.399,21.402,47.801,47.802,47.801c0.476,0,0.951-0.006,1.423-0.021L55.126,119.969z"/>
			<path fill="#009A93" d="M133.781,11.411c0,0-17.058,12.119-41.645,13.635c-10.234,0.631-14.825-1.188-21.444-3
				c-4.903-1.342-11.62-3.754-18.791-3.678C17.682,18.733,0,42.413,0,42.413s16.293-18.945,45.669-11.326
				c5.682,1.473,7.699,2.159,13.326,3.63c7.838,2.047,19.089,4.141,32.762,1.517C119.519,30.907,133.781,11.411,133.781,11.411z"/>
			<ellipse fill="#FFDE00" cx="80.433" cy="9.746" rx="9.322" ry="9.746"/>
			<path fill="#0069B4" d="M132.719,42.49c10.768-0.016,15.551,2.509,17.48,5.438l0,0c1.992-2.91,6.843-5.5,17.31-5.438
				c25.224,0.148,27.133,17.755,27.08,24.085v71.68h-18.625c0,0,0-68.395,0-70.168c0-1.774-0.639-7.456-8.223-7.456
				c-7.583,0-8.164,5.505-8.164,7.476c0,1.972,0,70.148,0,70.148h-18.708c0,0,0-68.014,0-70.146c0-1.774-0.065-7.524-8.232-7.524
				c-8.167,0-8.136,5.948-8.136,7.524c0,1.577,0,70.146,0,70.146h-18.762c0,0,0-71.642,0-71.663
				C105.765,60.315,107.137,42.528,132.719,42.49z"/>
		</g>
	</g>
</g>
</svg>
